<svg height="512pt" viewBox="0 0 512 512" width="512pt" xmlns="http://www.w3.org/2000/svg"><path d="m211 0h90v272h-90zm0 0" fill="#f3eee9"/><path d="m256 0h45v272h-45zm0 0" fill="#e9dfda"/><path d="m30 0h90v271h-90zm0 0" fill="#f3eee9"/><path d="m392 0h90v272h-90zm0 0" fill="#e9dfda"/><path d="m0 241h150v211h-150zm0 0" fill="#fbb040"/><path d="m181 242h150v90h-150zm0 0" fill="#fbb040"/><path d="m256 242h75v90h-75zm0 0" fill="#f7941d"/><path d="m362 242h150v210h-150zm0 0" fill="#f7941d"/><path d="m60 302h392v150h-392zm0 0" fill="#f3eee9"/><path d="m256 302h196v150h-196zm0 0" fill="#e9dfda"/><path d="m180 362h30v30h-30zm0 0" fill="#98e1f6"/><path d="m241 362h30v30h-30zm0 0" fill="#98e1f6"/><path d="m256 362h15v30h-15zm0 0" fill="#26befc"/><path d="m302 362h30v30h-30zm0 0" fill="#26befc"/><path d="m0 437h512v75h-512zm0 0" fill="#0042a2"/><path d="m256 437h256v75h-256zm0 0" fill="#002859"/></svg>